<?xml version="1.0" encoding="UTF-8"?>
<svg width="48px" height="48px" viewBox="0 0 48 48" version="1.1" xmlns="http://www.w3.org/2000/svg" xmlns:xlink="http://www.w3.org/1999/xlink">
    <title>logo</title>
    <g id="logo" stroke="none" stroke-width="1" fill="none" fill-rule="evenodd">
        <rect fill="#FFDD00" x="0" y="0" width="48" height="48"></rect>
        <g transform="translate(4, 4)" fill="#000000" fill-rule="nonzero" id="Pattern">
            <g>
                <rect id="Rectangle" x="0" y="0" width="1.9047619" height="1.9047619"></rect>
                <rect id="Rectangle" x="1.9047619" y="0" width="1.9047619" height="1.9047619"></rect>
                <rect id="Rectangle" x="3.80952381" y="0" width="1.9047619" height="1.9047619"></rect>
                <rect id="Rectangle" x="5.71428571" y="0" width="1.9047619" height="1.9047619"></rect>
                <rect id="Rectangle" x="7.61904762" y="0" width="1.9047619" height="1.9047619"></rect>
                <rect id="Rectangle" x="9.52380952" y="0" width="1.9047619" height="1.9047619"></rect>
                <rect id="Rectangle" x="11.4285714" y="0" width="1.9047619" height="1.9047619"></rect>
                <rect id="Rectangle" x="19.047619" y="0" width="1.9047619" height="1.9047619"></rect>
                <rect id="Rectangle" x="20.952381" y="0" width="1.9047619" height="1.9047619"></rect>
                <rect id="Rectangle" x="26.6666667" y="0" width="1.9047619" height="1.9047619"></rect>
                <rect id="Rectangle" x="28.5714286" y="0" width="1.9047619" height="1.9047619"></rect>
                <rect id="Rectangle" x="30.4761905" y="0" width="1.9047619" height="1.9047619"></rect>
                <rect id="Rectangle" x="32.3809524" y="0" width="1.9047619" height="1.9047619"></rect>
                <rect id="Rectangle" x="34.2857143" y="0" width="1.9047619" height="1.9047619"></rect>
                <rect id="Rectangle" x="36.1904762" y="0" width="1.9047619" height="1.9047619"></rect>
                <rect id="Rectangle" x="38.0952381" y="0" width="1.9047619" height="1.9047619"></rect>
                <rect id="Rectangle" x="0" y="1.9047619" width="1.9047619" height="1.9047619"></rect>
                <rect id="Rectangle" x="11.4285714" y="1.9047619" width="1.9047619" height="1.9047619"></rect>
                <rect id="Rectangle" x="15.2380952" y="1.9047619" width="1.9047619" height="1.9047619"></rect>
                <rect id="Rectangle" x="19.047619" y="1.9047619" width="1.9047619" height="1.9047619"></rect>
                <rect id="Rectangle" x="26.6666667" y="1.9047619" width="1.9047619" height="1.9047619"></rect>
                <rect id="Rectangle" x="38.0952381" y="1.9047619" width="1.9047619" height="1.9047619"></rect>
                <rect id="Rectangle" x="0" y="3.80952381" width="1.9047619" height="1.9047619"></rect>
                <rect id="Rectangle" x="3.80952381" y="3.80952381" width="1.9047619" height="1.9047619"></rect>
                <rect id="Rectangle" x="5.71428571" y="3.80952381" width="1.9047619" height="1.9047619"></rect>
                <rect id="Rectangle" x="7.61904762" y="3.80952381" width="1.9047619" height="1.9047619"></rect>
                <rect id="Rectangle" x="11.4285714" y="3.80952381" width="1.9047619" height="1.9047619"></rect>
                <rect id="Rectangle" x="15.2380952" y="3.80952381" width="1.9047619" height="1.9047619"></rect>
                <rect id="Rectangle" x="17.1428571" y="3.80952381" width="1.9047619" height="1.9047619"></rect>
                <rect id="Rectangle" x="19.047619" y="3.80952381" width="1.9047619" height="1.9047619"></rect>
                <rect id="Rectangle" x="26.6666667" y="3.80952381" width="1.9047619" height="1.9047619"></rect>
                <rect id="Rectangle" x="30.4761905" y="3.80952381" width="1.9047619" height="1.9047619"></rect>
                <rect id="Rectangle" x="32.3809524" y="3.80952381" width="1.9047619" height="1.9047619"></rect>
                <rect id="Rectangle" x="34.2857143" y="3.80952381" width="1.9047619" height="1.9047619"></rect>
                <rect id="Rectangle" x="38.0952381" y="3.80952381" width="1.9047619" height="1.9047619"></rect>
                <rect id="Rectangle" x="0" y="5.71428571" width="1.9047619" height="1.9047619"></rect>
                <rect id="Rectangle" x="3.80952381" y="5.71428571" width="1.9047619" height="1.9047619"></rect>
                <rect id="Rectangle" x="5.71428571" y="5.71428571" width="1.9047619" height="1.9047619"></rect>
                <rect id="Rectangle" x="7.61904762" y="5.71428571" width="1.9047619" height="1.9047619"></rect>
                <rect id="Rectangle" x="11.4285714" y="5.71428571" width="1.9047619" height="1.9047619"></rect>
                <rect id="Rectangle" x="19.047619" y="5.71428571" width="1.9047619" height="1.9047619"></rect>
                <rect id="Rectangle" x="22.8571429" y="5.71428571" width="1.9047619" height="1.9047619"></rect>
                <rect id="Rectangle" x="26.6666667" y="5.71428571" width="1.9047619" height="1.9047619"></rect>
                <rect id="Rectangle" x="30.4761905" y="5.71428571" width="1.9047619" height="1.9047619"></rect>
                <rect id="Rectangle" x="32.3809524" y="5.71428571" width="1.9047619" height="1.9047619"></rect>
                <rect id="Rectangle" x="34.2857143" y="5.71428571" width="1.9047619" height="1.9047619"></rect>
                <rect id="Rectangle" x="38.0952381" y="5.71428571" width="1.9047619" height="1.9047619"></rect>
                <rect id="Rectangle" x="0" y="7.61904762" width="1.9047619" height="1.9047619"></rect>
                <rect id="Rectangle" x="3.80952381" y="7.61904762" width="1.9047619" height="1.9047619"></rect>
                <rect id="Rectangle" x="5.71428571" y="7.61904762" width="1.9047619" height="1.9047619"></rect>
                <rect id="Rectangle" x="7.61904762" y="7.61904762" width="1.9047619" height="1.9047619"></rect>
                <rect id="Rectangle" x="11.4285714" y="7.61904762" width="1.9047619" height="1.9047619"></rect>
                <rect id="Rectangle" x="15.2380952" y="7.61904762" width="1.9047619" height="1.9047619"></rect>
                <rect id="Rectangle" x="26.6666667" y="7.61904762" width="1.9047619" height="1.9047619"></rect>
                <rect id="Rectangle" x="30.4761905" y="7.61904762" width="1.9047619" height="1.9047619"></rect>
                <rect id="Rectangle" x="32.3809524" y="7.61904762" width="1.9047619" height="1.9047619"></rect>
                <rect id="Rectangle" x="34.2857143" y="7.61904762" width="1.9047619" height="1.9047619"></rect>
                <rect id="Rectangle" x="38.0952381" y="7.61904762" width="1.9047619" height="1.9047619"></rect>
                <rect id="Rectangle" x="0" y="9.52380952" width="1.9047619" height="1.9047619"></rect>
                <rect id="Rectangle" x="11.4285714" y="9.52380952" width="1.9047619" height="1.9047619"></rect>
                <rect id="Rectangle" x="15.2380952" y="9.52380952" width="1.9047619" height="1.9047619"></rect>
                <rect id="Rectangle" x="17.1428571" y="9.52380952" width="1.9047619" height="1.9047619"></rect>
                <rect id="Rectangle" x="19.047619" y="9.52380952" width="1.9047619" height="1.9047619"></rect>
                <rect id="Rectangle" x="26.6666667" y="9.52380952" width="1.9047619" height="1.9047619"></rect>
                <rect id="Rectangle" x="38.0952381" y="9.52380952" width="1.9047619" height="1.9047619"></rect>
                <rect id="Rectangle" x="0" y="11.4285714" width="1.9047619" height="1.9047619"></rect>
                <rect id="Rectangle" x="1.9047619" y="11.4285714" width="1.9047619" height="1.9047619"></rect>
                <rect id="Rectangle" x="3.80952381" y="11.4285714" width="1.9047619" height="1.9047619"></rect>
                <rect id="Rectangle" x="5.71428571" y="11.4285714" width="1.9047619" height="1.9047619"></rect>
                <rect id="Rectangle" x="7.61904762" y="11.4285714" width="1.9047619" height="1.9047619"></rect>
                <rect id="Rectangle" x="9.52380952" y="11.4285714" width="1.9047619" height="1.9047619"></rect>
                <rect id="Rectangle" x="11.4285714" y="11.4285714" width="1.9047619" height="1.9047619"></rect>
                <rect id="Rectangle" x="15.2380952" y="11.4285714" width="1.9047619" height="1.9047619"></rect>
                <rect id="Rectangle" x="19.047619" y="11.4285714" width="1.9047619" height="1.9047619"></rect>
                <rect id="Rectangle" x="22.8571429" y="11.4285714" width="1.9047619" height="1.9047619"></rect>
                <rect id="Rectangle" x="26.6666667" y="11.4285714" width="1.9047619" height="1.9047619"></rect>
                <rect id="Rectangle" x="28.5714286" y="11.4285714" width="1.9047619" height="1.9047619"></rect>
                <rect id="Rectangle" x="30.4761905" y="11.4285714" width="1.9047619" height="1.9047619"></rect>
                <rect id="Rectangle" x="32.3809524" y="11.4285714" width="1.9047619" height="1.9047619"></rect>
                <rect id="Rectangle" x="34.2857143" y="11.4285714" width="1.9047619" height="1.9047619"></rect>
                <rect id="Rectangle" x="36.1904762" y="11.4285714" width="1.9047619" height="1.9047619"></rect>
                <rect id="Rectangle" x="38.0952381" y="11.4285714" width="1.9047619" height="1.9047619"></rect>
                <rect id="Rectangle" x="15.2380952" y="13.3333333" width="1.9047619" height="1.9047619"></rect>
                <rect id="Rectangle" x="17.1428571" y="13.3333333" width="1.9047619" height="1.9047619"></rect>
                <rect id="Rectangle" x="19.047619" y="13.3333333" width="1.9047619" height="1.9047619"></rect>
                <rect id="Rectangle" x="0" y="15.2380952" width="1.9047619" height="1.9047619"></rect>
                <rect id="Rectangle" x="1.9047619" y="15.2380952" width="1.9047619" height="1.9047619"></rect>
                <rect id="Rectangle" x="5.71428571" y="15.2380952" width="1.9047619" height="1.9047619"></rect>
                <rect id="Rectangle" x="11.4285714" y="15.2380952" width="1.9047619" height="1.9047619"></rect>
                <rect id="Rectangle" x="13.3333333" y="15.2380952" width="1.9047619" height="1.9047619"></rect>
                <rect id="Rectangle" x="19.047619" y="15.2380952" width="1.9047619" height="1.9047619"></rect>
                <rect id="Rectangle" x="20.952381" y="15.2380952" width="1.9047619" height="1.9047619"></rect>
                <rect id="Rectangle" x="26.6666667" y="15.2380952" width="1.9047619" height="1.9047619"></rect>
                <rect id="Rectangle" x="28.5714286" y="15.2380952" width="1.9047619" height="1.9047619"></rect>
                <rect id="Rectangle" x="30.4761905" y="15.2380952" width="1.9047619" height="1.9047619"></rect>
                <rect id="Rectangle" x="34.2857143" y="15.2380952" width="1.9047619" height="1.9047619"></rect>
                <rect id="Rectangle" x="36.1904762" y="15.2380952" width="1.9047619" height="1.9047619"></rect>
                <rect id="Rectangle" x="0" y="17.1428571" width="1.9047619" height="1.9047619"></rect>
                <rect id="Rectangle" x="3.80952381" y="17.1428571" width="1.9047619" height="1.9047619"></rect>
                <rect id="Rectangle" x="5.71428571" y="17.1428571" width="1.9047619" height="1.9047619"></rect>
                <rect id="Rectangle" x="13.3333333" y="17.1428571" width="1.9047619" height="1.9047619"></rect>
                <rect id="Rectangle" x="15.2380952" y="17.1428571" width="1.9047619" height="1.9047619"></rect>
                <rect id="Rectangle" x="17.1428571" y="17.1428571" width="1.9047619" height="1.9047619"></rect>
                <rect id="Rectangle" x="19.047619" y="17.1428571" width="1.9047619" height="1.9047619"></rect>
                <rect id="Rectangle" x="20.952381" y="17.1428571" width="1.9047619" height="1.9047619"></rect>
                <rect id="Rectangle" x="22.8571429" y="17.1428571" width="1.9047619" height="1.9047619"></rect>
                <rect id="Rectangle" x="26.6666667" y="17.1428571" width="1.9047619" height="1.9047619"></rect>
                <rect id="Rectangle" x="28.5714286" y="17.1428571" width="1.9047619" height="1.9047619"></rect>
                <rect id="Rectangle" x="30.4761905" y="17.1428571" width="1.9047619" height="1.9047619"></rect>
                <rect id="Rectangle" x="38.0952381" y="17.1428571" width="1.9047619" height="1.9047619"></rect>
                <rect id="Rectangle" x="0" y="19.047619" width="1.9047619" height="1.9047619"></rect>
                <rect id="Rectangle" x="3.80952381" y="19.047619" width="1.9047619" height="1.9047619"></rect>
                <rect id="Rectangle" x="5.71428571" y="19.047619" width="1.9047619" height="1.9047619"></rect>
                <rect id="Rectangle" x="7.61904762" y="19.047619" width="1.9047619" height="1.9047619"></rect>
                <rect id="Rectangle" x="9.52380952" y="19.047619" width="1.9047619" height="1.9047619"></rect>
                <rect id="Rectangle" x="11.4285714" y="19.047619" width="1.9047619" height="1.9047619"></rect>
                <rect id="Rectangle" x="15.2380952" y="19.047619" width="1.9047619" height="1.9047619"></rect>
                <rect id="Rectangle" x="19.047619" y="19.047619" width="1.9047619" height="1.9047619"></rect>
                <rect id="Rectangle" x="20.952381" y="19.047619" width="1.9047619" height="1.9047619"></rect>
                <rect id="Rectangle" x="22.8571429" y="19.047619" width="1.9047619" height="1.9047619"></rect>
                <rect id="Rectangle" x="34.2857143" y="19.047619" width="1.9047619" height="1.9047619"></rect>
                <rect id="Rectangle" x="38.0952381" y="19.047619" width="1.9047619" height="1.9047619"></rect>
                <rect id="Rectangle" x="7.61904762" y="20.952381" width="1.9047619" height="1.9047619"></rect>
                <rect id="Rectangle" x="13.3333333" y="20.952381" width="1.9047619" height="1.9047619"></rect>
                <rect id="Rectangle" x="15.2380952" y="20.952381" width="1.9047619" height="1.9047619"></rect>
                <rect id="Rectangle" x="19.047619" y="20.952381" width="1.9047619" height="1.9047619"></rect>
                <rect id="Rectangle" x="26.6666667" y="20.952381" width="1.9047619" height="1.9047619"></rect>
                <rect id="Rectangle" x="30.4761905" y="20.952381" width="1.9047619" height="1.9047619"></rect>
                <rect id="Rectangle" x="32.3809524" y="20.952381" width="1.9047619" height="1.9047619"></rect>
                <rect id="Rectangle" x="36.1904762" y="20.952381" width="1.9047619" height="1.9047619"></rect>
                <rect id="Rectangle" x="38.0952381" y="20.952381" width="1.9047619" height="1.9047619"></rect>
                <rect id="Rectangle" x="0" y="22.8571429" width="1.9047619" height="1.9047619"></rect>
                <rect id="Rectangle" x="1.9047619" y="22.8571429" width="1.9047619" height="1.9047619"></rect>
                <rect id="Rectangle" x="3.80952381" y="22.8571429" width="1.9047619" height="1.9047619"></rect>
                <rect id="Rectangle" x="5.71428571" y="22.8571429" width="1.9047619" height="1.9047619"></rect>
                <rect id="Rectangle" x="7.61904762" y="22.8571429" width="1.9047619" height="1.9047619"></rect>
                <rect id="Rectangle" x="11.4285714" y="22.8571429" width="1.9047619" height="1.9047619"></rect>
                <rect id="Rectangle" x="13.3333333" y="22.8571429" width="1.9047619" height="1.9047619"></rect>
                <rect id="Rectangle" x="19.047619" y="22.8571429" width="1.9047619" height="1.9047619"></rect>
                <rect id="Rectangle" x="20.952381" y="22.8571429" width="1.9047619" height="1.9047619"></rect>
                <rect id="Rectangle" x="24.7619048" y="22.8571429" width="1.9047619" height="1.9047619"></rect>
                <rect id="Rectangle" x="28.5714286" y="22.8571429" width="1.9047619" height="1.9047619"></rect>
                <rect id="Rectangle" x="32.3809524" y="22.8571429" width="1.9047619" height="1.9047619"></rect>
                <rect id="Rectangle" x="15.2380952" y="24.7619048" width="1.9047619" height="1.9047619"></rect>
                <rect id="Rectangle" x="20.952381" y="24.7619048" width="1.9047619" height="1.9047619"></rect>
                <rect id="Rectangle" x="22.8571429" y="24.7619048" width="1.9047619" height="1.9047619"></rect>
                <rect id="Rectangle" x="24.7619048" y="24.7619048" width="1.9047619" height="1.9047619"></rect>
                <rect id="Rectangle" x="28.5714286" y="24.7619048" width="1.9047619" height="1.9047619"></rect>
                <rect id="Rectangle" x="38.0952381" y="24.7619048" width="1.9047619" height="1.9047619"></rect>
                <rect id="Rectangle" x="0" y="26.6666667" width="1.9047619" height="1.9047619"></rect>
                <rect id="Rectangle" x="1.9047619" y="26.6666667" width="1.9047619" height="1.9047619"></rect>
                <rect id="Rectangle" x="3.80952381" y="26.6666667" width="1.9047619" height="1.9047619"></rect>
                <rect id="Rectangle" x="5.71428571" y="26.6666667" width="1.9047619" height="1.9047619"></rect>
                <rect id="Rectangle" x="7.61904762" y="26.6666667" width="1.9047619" height="1.9047619"></rect>
                <rect id="Rectangle" x="9.52380952" y="26.6666667" width="1.9047619" height="1.9047619"></rect>
                <rect id="Rectangle" x="11.4285714" y="26.6666667" width="1.9047619" height="1.9047619"></rect>
                <rect id="Rectangle" x="15.2380952" y="26.6666667" width="1.9047619" height="1.9047619"></rect>
                <rect id="Rectangle" x="22.8571429" y="26.6666667" width="1.9047619" height="1.9047619"></rect>
                <rect id="Rectangle" x="30.4761905" y="26.6666667" width="1.9047619" height="1.9047619"></rect>
                <rect id="Rectangle" x="32.3809524" y="26.6666667" width="1.9047619" height="1.9047619"></rect>
                <rect id="Rectangle" x="34.2857143" y="26.6666667" width="1.9047619" height="1.9047619"></rect>
                <rect id="Rectangle" x="36.1904762" y="26.6666667" width="1.9047619" height="1.9047619"></rect>
                <rect id="Rectangle" x="0" y="28.5714286" width="1.9047619" height="1.9047619"></rect>
                <rect id="Rectangle" x="11.4285714" y="28.5714286" width="1.9047619" height="1.9047619"></rect>
                <rect id="Rectangle" x="19.047619" y="28.5714286" width="1.9047619" height="1.9047619"></rect>
                <rect id="Rectangle" x="20.952381" y="28.5714286" width="1.9047619" height="1.9047619"></rect>
                <rect id="Rectangle" x="22.8571429" y="28.5714286" width="1.9047619" height="1.9047619"></rect>
                <rect id="Rectangle" x="28.5714286" y="28.5714286" width="1.9047619" height="1.9047619"></rect>
                <rect id="Rectangle" x="30.4761905" y="28.5714286" width="1.9047619" height="1.9047619"></rect>
                <rect id="Rectangle" x="0" y="30.4761905" width="1.9047619" height="1.9047619"></rect>
                <rect id="Rectangle" x="3.80952381" y="30.4761905" width="1.9047619" height="1.9047619"></rect>
                <rect id="Rectangle" x="5.71428571" y="30.4761905" width="1.9047619" height="1.9047619"></rect>
                <rect id="Rectangle" x="7.61904762" y="30.4761905" width="1.9047619" height="1.9047619"></rect>
                <rect id="Rectangle" x="11.4285714" y="30.4761905" width="1.9047619" height="1.9047619"></rect>
                <rect id="Rectangle" x="19.047619" y="30.4761905" width="1.9047619" height="1.9047619"></rect>
                <rect id="Rectangle" x="20.952381" y="30.4761905" width="1.9047619" height="1.9047619"></rect>
                <rect id="Rectangle" x="24.7619048" y="30.4761905" width="1.9047619" height="1.9047619"></rect>
                <rect id="Rectangle" x="30.4761905" y="30.4761905" width="1.9047619" height="1.9047619"></rect>
                <rect id="Rectangle" x="32.3809524" y="30.4761905" width="1.9047619" height="1.9047619"></rect>
                <rect id="Rectangle" x="36.1904762" y="30.4761905" width="1.9047619" height="1.9047619"></rect>
                <rect id="Rectangle" x="38.0952381" y="30.4761905" width="1.9047619" height="1.9047619"></rect>
                <rect id="Rectangle" x="0" y="32.3809524" width="1.9047619" height="1.9047619"></rect>
                <rect id="Rectangle" x="3.80952381" y="32.3809524" width="1.9047619" height="1.9047619"></rect>
                <rect id="Rectangle" x="5.71428571" y="32.3809524" width="1.9047619" height="1.9047619"></rect>
                <rect id="Rectangle" x="7.61904762" y="32.3809524" width="1.9047619" height="1.9047619"></rect>
                <rect id="Rectangle" x="11.4285714" y="32.3809524" width="1.9047619" height="1.9047619"></rect>
                <rect id="Rectangle" x="15.2380952" y="32.3809524" width="1.9047619" height="1.9047619"></rect>
                <rect id="Rectangle" x="22.8571429" y="32.3809524" width="1.9047619" height="1.9047619"></rect>
                <rect id="Rectangle" x="30.4761905" y="32.3809524" width="1.9047619" height="1.9047619"></rect>
                <rect id="Rectangle" x="38.0952381" y="32.3809524" width="1.9047619" height="1.9047619"></rect>
                <rect id="Rectangle" x="0" y="34.2857143" width="1.9047619" height="1.9047619"></rect>
                <rect id="Rectangle" x="3.80952381" y="34.2857143" width="1.9047619" height="1.9047619"></rect>
                <rect id="Rectangle" x="5.71428571" y="34.2857143" width="1.9047619" height="1.9047619"></rect>
                <rect id="Rectangle" x="7.61904762" y="34.2857143" width="1.9047619" height="1.9047619"></rect>
                <rect id="Rectangle" x="11.4285714" y="34.2857143" width="1.9047619" height="1.9047619"></rect>
                <rect id="Rectangle" x="17.1428571" y="34.2857143" width="1.9047619" height="1.9047619"></rect>
                <rect id="Rectangle" x="22.8571429" y="34.2857143" width="1.9047619" height="1.9047619"></rect>
                <rect id="Rectangle" x="26.6666667" y="34.2857143" width="1.9047619" height="1.9047619"></rect>
                <rect id="Rectangle" x="30.4761905" y="34.2857143" width="1.9047619" height="1.9047619"></rect>
                <rect id="Rectangle" x="34.2857143" y="34.2857143" width="1.9047619" height="1.9047619"></rect>
                <rect id="Rectangle" x="38.0952381" y="34.2857143" width="1.9047619" height="1.9047619"></rect>
                <rect id="Rectangle" x="0" y="36.1904762" width="1.9047619" height="1.9047619"></rect>
                <rect id="Rectangle" x="11.4285714" y="36.1904762" width="1.9047619" height="1.9047619"></rect>
                <rect id="Rectangle" x="15.2380952" y="36.1904762" width="1.9047619" height="1.9047619"></rect>
                <rect id="Rectangle" x="17.1428571" y="36.1904762" width="1.9047619" height="1.9047619"></rect>
                <rect id="Rectangle" x="19.047619" y="36.1904762" width="1.9047619" height="1.9047619"></rect>
                <rect id="Rectangle" x="20.952381" y="36.1904762" width="1.9047619" height="1.9047619"></rect>
                <rect id="Rectangle" x="22.8571429" y="36.1904762" width="1.9047619" height="1.9047619"></rect>
                <rect id="Rectangle" x="24.7619048" y="36.1904762" width="1.9047619" height="1.9047619"></rect>
                <rect id="Rectangle" x="0" y="38.0952381" width="1.9047619" height="1.9047619"></rect>
                <rect id="Rectangle" x="1.9047619" y="38.0952381" width="1.9047619" height="1.9047619"></rect>
                <rect id="Rectangle" x="3.80952381" y="38.0952381" width="1.9047619" height="1.9047619"></rect>
                <rect id="Rectangle" x="5.71428571" y="38.0952381" width="1.9047619" height="1.9047619"></rect>
                <rect id="Rectangle" x="7.61904762" y="38.0952381" width="1.9047619" height="1.9047619"></rect>
                <rect id="Rectangle" x="9.52380952" y="38.0952381" width="1.9047619" height="1.9047619"></rect>
                <rect id="Rectangle" x="11.4285714" y="38.0952381" width="1.9047619" height="1.9047619"></rect>
                <rect id="Rectangle" x="15.2380952" y="38.0952381" width="1.9047619" height="1.9047619"></rect>
                <rect id="Rectangle" x="17.1428571" y="38.0952381" width="1.9047619" height="1.9047619"></rect>
                <rect id="Rectangle" x="19.047619" y="38.0952381" width="1.9047619" height="1.9047619"></rect>
                <rect id="Rectangle" x="20.952381" y="38.0952381" width="1.9047619" height="1.9047619"></rect>
                <rect id="Rectangle" x="24.7619048" y="38.0952381" width="1.9047619" height="1.9047619"></rect>
                <rect id="Rectangle" x="26.6666667" y="38.0952381" width="1.9047619" height="1.9047619"></rect>
                <rect id="Rectangle" x="30.4761905" y="38.0952381" width="1.9047619" height="1.9047619"></rect>
                <rect id="Rectangle" x="36.1904762" y="38.0952381" width="1.9047619" height="1.9047619"></rect>
            </g>
        </g>
    </g>
</svg>